name ../AP_Laxity/ap_60.mot
datacolumns   7
datarows 33
range   21.00000000 21.32000000
cursor 1.0 1.0 0.0
keys m_key
wrap
enforce_loops no
enforce_constraints no
calc_derivatives -1.000000
event_color 0.000000 0.000000 0.000000
endheader
            time femur_r_force_vx femur_r_force_vy femur_r_force_vz femur_r_force_px femur_r_force_py femur_r_force_pz 
     21.00000000      44.05405138     -76.30385527       0.00000000      -0.06140863      -0.48102942       0.00000000 
     21.01000000      44.14143627     -76.45521033       0.00000000      -0.06140863      -0.48102942       0.00000000 
     21.02000000      44.22825957     -76.60559270       0.00000000      -0.06140863      -0.48102942       0.00000000 
     21.03000000      44.31451873     -76.75499795       0.00000000      -0.06140863      -0.48102942       0.00000000 
     21.04000000      44.40021123     -76.90342172       0.00000000      -0.06140863      -0.48102942       0.00000000 
     21.05000000      44.48533455     -77.05085963       0.00000000      -0.06140863      -0.48102942       0.00000000 
     21.06000000      44.56988619     -77.19730738       0.00000000      -0.06140863      -0.48102942       0.00000000 
     21.07000000      44.65386368     -77.34276065       0.00000000      -0.06140863      -0.48102942       0.00000000 
     21.08000000      44.73726455     -77.48721519       0.00000000      -0.06140863      -0.48102942       0.00000000 
     21.09000000      44.82008634     -77.63066675       0.00000000      -0.06140863      -0.48102942       0.00000000 
     21.10000000      44.90232664     -77.77311112       0.00000000      -0.06140863      -0.48102942       0.00000000 
     21.11000000      44.98398303     -77.91454414       0.00000000      -0.06140863      -0.48102942       0.00000000 
     21.12000000      45.06505311     -78.05496164       0.00000000      -0.06140863      -0.48102942       0.00000000 
     21.13000000      45.14553451     -78.19435950       0.00000000      -0.06140863      -0.48102942       0.00000000 
     21.14000000      45.22542486     -78.33273365       0.00000000      -0.06140863      -0.48102942       0.00000000 
     21.15000000      45.30472182     -78.47008001       0.00000000      -0.06140863      -0.48102942       0.00000000 
     21.16000000      45.38342306     -78.60639457       0.00000000      -0.06140863      -0.48102942       0.00000000 
     21.17000000      45.46152628     -78.74167331       0.00000000      -0.06140863      -0.48102942       0.00000000 
     21.18000000      45.53902918     -78.87591227       0.00000000      -0.06140863      -0.48102942       0.00000000 
     21.19000000      45.61592949     -79.00910751       0.00000000      -0.06140863      -0.48102942       0.00000000 
     21.20000000      45.69222495     -79.14125513       0.00000000      -0.06140863      -0.48102942       0.00000000 
     21.21000000      45.76791333     -79.27235125       0.00000000      -0.06140863      -0.48102942       0.00000000 
     21.22000000      45.84299240     -79.40239201       0.00000000      -0.06140863      -0.48102942       0.00000000 
     21.23000000      45.91745996     -79.53137361       0.00000000      -0.06140863      -0.48102942       0.00000000 
     21.24000000      45.99131383     -79.65929226       0.00000000      -0.06140863      -0.48102942       0.00000000 
     21.25000000      46.06455184     -79.78614422       0.00000000      -0.06140863      -0.48102942       0.00000000 
     21.26000000      46.13717184     -79.91192574       0.00000000      -0.06140863      -0.48102942       0.00000000 
     21.27000000      46.20917170     -80.03663316       0.00000000      -0.06140863      -0.48102942       0.00000000 
     21.28000000      46.28054931     -80.16026280       0.00000000      -0.06140863      -0.48102942       0.00000000 
     21.29000000      46.35130257     -80.28281104       0.00000000      -0.06140863      -0.48102942       0.00000000 
     21.30000000      46.42142940     -80.40427429       0.00000000      -0.06140863      -0.48102942       0.00000000 
     21.31000000      46.49092776     -80.52464898       0.00000000      -0.06140863      -0.48102942       0.00000000 
     21.32000000      46.55979560     -80.64393158       0.00000000      -0.06140863      -0.48102942       0.00000000 
